<svg xmlns="http://www.w3.org/2000/svg" width="426" height="90" viewBox="0 0 426 90" role="img" aria-label="Dash.fi wordmark" fill="#5BB8B0"><g fill="#5BB8B0"><path d="m0 67.2114v-18.9871c0-12.6581 10.3035-22.7886 22.8855-22.7886h9.7938l10.5533 7.0853v-32.4115h12.7119v89.8905h-33.059c-12.592 0-22.8855-10.2598-22.8855-22.7886zm22.8855 10.1305h20.3471v-29.4958l-14.4908-9.7523h-5.8463c-5.5965 0-10.1736 4.5577-10.1736 10.1305v18.9871c0 5.5728 4.5771 10.1305 10.1736 10.1305z"/>
<path d="m72.3441 67.2114v-18.9871c0-12.6582 10.3035-22.7886 22.8855-22.7886h9.7934l10.554 7.0853v-7.0853h12.712v64.5743h-33.0594c-12.592 0-22.8855-10.2599-22.8855-22.7886zm22.8855 10.1305h20.3474v-29.4958l-14.491-9.7523h-5.8464c-5.5964 0-10.1735 4.5577-10.1735 10.1305v18.9871c0 5.5728 4.5771 10.1305 10.1735 10.1305z"/>
<path d="m143.549 71.2616v-2.5277h12.712v2.5277c0 4.0502 3.308 6.9659 8.774 6.9659h11.573c5.976 0 8.904-2.4082 8.904-6.0803 0-14.31-41.064-5.0652-41.064-29.6251 0-10.2599 8.265-17.0964 20.348-17.0964h10.933c11.442 0 20.347 8.2297 20.347 18.8677v1.1444h-12.712v-1.1444c0-4.0502-3.178-7.0853-7.625-7.0853h-10.933c-5.337 0-7.626 2.1494-7.626 5.314 0 10.2598 41.064 3.8014 41.064 29.6251 0 10.638-8.774 17.8528-21.616 17.8528h-11.573c-12.332 0-21.486-7.981-21.486-18.7384z"/>
<path d="m225.817.1095v32.4115l10.553-7.0853h9.794c12.592 0 22.885 10.1305 22.885 22.7886v41.7857h-12.711v-41.7857c0-5.5728-4.578-10.1305-10.174-10.1305h-5.846l-14.491 9.7523v42.1639h-12.712v-89.9005h12.712z"/>
<path d="m349.718 0h12.083v12.6581h-12.083c-5.726 0-10.173 4.4284-10.173 10.1305v6.329h22.246v12.6582h-22.246v48.1147h-12.712v-48.1147h-17.169v-12.6582h17.169v-6.329c0-12.6581 10.173-22.7886 22.885-22.7886z"/>
<path d="m371.325 77.2325h20.986v-35.4766h-30.52v-12.6581h43.232v48.1347h20.977v12.6581h-54.675z"/>
<path d="m405.023 0h-23.175v12.887h23.175z"/>
<path d="m225.797.1095h-23.175v12.887h23.175z"/></g><g fill="#5BB8B0"><path d="m309.664 76.8046h-23.176v12.887h23.176z"/></g></svg>
